<svg xmlns="http://www.w3.org/2000/svg" viewBox="0 0 520 250" width="520" height="250" style="max-width:100%;height:auto;font-family:Georgia,'Times New Roman',serif"><text x="260" y="20" text-anchor="middle" dominant-baseline="central" font-size="14" font-style="italic" fill="#1a2233">the two-site effective Hamiltonian  L — W₁ — W₂ — R</text><line x1="84.0" y1="125" x2="177.0" y2="125" stroke="#2b3a55" stroke-width="2"/><line x1="223.0" y1="125" x2="297.0" y2="125" stroke="#2b3a55" stroke-width="2"/><line x1="343.0" y1="125" x2="436.0" y2="125" stroke="#2b3a55" stroke-width="2"/><text x="132.0" y="114" text-anchor="middle" dominant-baseline="central" font-size="10" fill="#6b7a99">MPO</text><text x="260.0" y="114" text-anchor="middle" dominant-baseline="central" font-size="10" fill="#6b7a99">MPO</text><text x="388.0" y="114" text-anchor="middle" dominant-baseline="central" font-size="10" fill="#6b7a99">MPO</text><line x1="64" y1="83.0" x2="64" y2="57.0" stroke="#2b3a55" stroke-width="2"/><line x1="64" y1="167.0" x2="64" y2="193.0" stroke="#2b3a55" stroke-width="2"/><line x1="200" y1="103.0" x2="200" y2="77.0" stroke="#2b3a55" stroke-width="2"/><line x1="200" y1="147.0" x2="200" y2="173.0" stroke="#2b3a55" stroke-width="2"/><line x1="320" y1="103.0" x2="320" y2="77.0" stroke="#2b3a55" stroke-width="2"/><line x1="320" y1="147.0" x2="320" y2="173.0" stroke="#2b3a55" stroke-width="2"/><line x1="456" y1="83.0" x2="456" y2="57.0" stroke="#2b3a55" stroke-width="2"/><line x1="456" y1="167.0" x2="456" y2="193.0" stroke="#2b3a55" stroke-width="2"/><rect x="44.0" y="83.0" width="40" height="84" rx="9" fill="#f6ecdd" stroke="#8a6a3b" stroke-width="2"/><text x="64.0" y="125.0" text-anchor="middle" dominant-baseline="central" font-size="18" font-weight="600" fill="#8a6a3b">L</text><rect x="177.0" y="103.0" width="46" height="44" rx="9" fill="#e9f0fb" stroke="#2b3a55" stroke-width="2"/><text x="200.0" y="125.0" text-anchor="middle" dominant-baseline="central" font-size="16" font-weight="600" fill="#2b3a55">W₁</text><rect x="297.0" y="103.0" width="46" height="44" rx="9" fill="#e9f0fb" stroke="#2b3a55" stroke-width="2"/><text x="320.0" y="125.0" text-anchor="middle" dominant-baseline="central" font-size="16" font-weight="600" fill="#2b3a55">W₂</text><rect x="436.0" y="83.0" width="40" height="84" rx="9" fill="#f6ecdd" stroke="#8a6a3b" stroke-width="2"/><text x="456.0" y="125.0" text-anchor="middle" dominant-baseline="central" font-size="18" font-weight="600" fill="#8a6a3b">R</text><text x="260" y="45.0" text-anchor="middle" dominant-baseline="central" font-size="12" fill="#475569">ket legs (input  Θ = two-site block)</text><text x="260" y="205.0" text-anchor="middle" dominant-baseline="central" font-size="12" fill="#475569">bra legs (output  Θ′)</text><text x="260" y="236" text-anchor="middle" dominant-baseline="central" font-size="12" fill="#475569">solve for the lowest Θ, then SVD-split it back into two tensors — the bond dimension adapts</text></svg>