<svg xmlns="http://www.w3.org/2000/svg" viewBox="0 0 460 250" width="460" height="250" style="max-width:100%;height:auto;font-family:Georgia,'Times New Roman',serif"><text x="230" y="20" text-anchor="middle" dominant-baseline="central" font-size="14" font-style="italic" fill="#1a2233">the single-site effective Hamiltonian  Hᵉᶠᶠ = L — W — R</text><line x1="100.0" y1="125" x2="204.0" y2="125" stroke="#2b3a55" stroke-width="2"/><line x1="256.0" y1="125" x2="360.0" y2="125" stroke="#2b3a55" stroke-width="2"/><text x="155.0" y="114" text-anchor="middle" dominant-baseline="central" font-size="10" fill="#6b7a99">MPO bond</text><text x="305.0" y="114" text-anchor="middle" dominant-baseline="central" font-size="10" fill="#6b7a99">MPO bond</text><line x1="80" y1="83.0" x2="80" y2="57.0" stroke="#2b3a55" stroke-width="2"/><line x1="80" y1="167.0" x2="80" y2="193.0" stroke="#2b3a55" stroke-width="2"/><line x1="230" y1="103.0" x2="230" y2="77.0" stroke="#2b3a55" stroke-width="2"/><line x1="230" y1="147.0" x2="230" y2="173.0" stroke="#2b3a55" stroke-width="2"/><line x1="380" y1="83.0" x2="380" y2="57.0" stroke="#2b3a55" stroke-width="2"/><line x1="380" y1="167.0" x2="380" y2="193.0" stroke="#2b3a55" stroke-width="2"/><rect x="60.0" y="83.0" width="40" height="84" rx="9" fill="#f6ecdd" stroke="#8a6a3b" stroke-width="2"/><text x="80.0" y="125.0" text-anchor="middle" dominant-baseline="central" font-size="18" font-weight="600" fill="#8a6a3b">L</text><rect x="204.0" y="103.0" width="52" height="44" rx="9" fill="#e9f0fb" stroke="#2b3a55" stroke-width="2"/><text x="230.0" y="125.0" text-anchor="middle" dominant-baseline="central" font-size="18" font-weight="600" fill="#2b3a55">W</text><rect x="360.0" y="83.0" width="40" height="84" rx="9" fill="#f6ecdd" stroke="#8a6a3b" stroke-width="2"/><text x="380.0" y="125.0" text-anchor="middle" dominant-baseline="central" font-size="18" font-weight="600" fill="#8a6a3b">R</text><text x="230" y="45.0" text-anchor="middle" dominant-baseline="central" font-size="12" fill="#475569">ket legs (input  A)</text><text x="230" y="205.0" text-anchor="middle" dominant-baseline="central" font-size="12" fill="#475569">bra legs (output  A′)</text><text x="230" y="58.0" text-anchor="middle" dominant-baseline="central" font-size="9" fill="#6b7a99">spin</text><text x="230" y="234" text-anchor="middle" dominant-baseline="central" font-size="12" fill="#475569">with L, W, R fixed, this is a linear map on one site:  A (ket, top) ↦ H·A (bra, bottom)</text></svg>