<svg xmlns="http://www.w3.org/2000/svg" viewBox="0 0 480 160" width="480" height="160" style="max-width:100%;height:auto;font-family:Georgia,'Times New Roman',serif"><text x="240" y="20" text-anchor="middle" dominant-baseline="central" font-size="14" font-style="italic" fill="#1a2233">one DMRG sweep: optimise the centre, then move the gauge</text><line x1="78" y1="80" x2="100" y2="80" stroke="#6b7a99" stroke-width="1.6"/><rect x="40" y="63.0" width="38" height="34" rx="9" fill="#e7efe7" stroke="#2f5d43" stroke-width="2"/><text x="59.0" y="80.0" text-anchor="middle" dominant-baseline="central" font-size="14" font-weight="600" fill="#2f5d43">A</text><line x1="59.0" y1="97.0" x2="59.0" y2="113.0" stroke="#2f5d43" stroke-width="2"/><line x1="138" y1="80" x2="160" y2="80" stroke="#6b7a99" stroke-width="1.6"/><rect x="100" y="63.0" width="38" height="34" rx="9" fill="#e7efe7" stroke="#2f5d43" stroke-width="2"/><text x="119.0" y="80.0" text-anchor="middle" dominant-baseline="central" font-size="14" font-weight="600" fill="#2f5d43">A</text><line x1="119.0" y1="97.0" x2="119.0" y2="113.0" stroke="#2f5d43" stroke-width="2"/><line x1="198" y1="80" x2="220" y2="80" stroke="#6b7a99" stroke-width="1.6"/><rect x="160" y="63.0" width="38" height="34" rx="9" fill="#e7efe7" stroke="#2f5d43" stroke-width="2"/><text x="179.0" y="80.0" text-anchor="middle" dominant-baseline="central" font-size="14" font-weight="600" fill="#2f5d43">A</text><line x1="179.0" y1="97.0" x2="179.0" y2="113.0" stroke="#2f5d43" stroke-width="2"/><line x1="258" y1="80" x2="280" y2="80" stroke="#6b7a99" stroke-width="1.6"/><rect x="220" y="63.0" width="38" height="34" rx="9" fill="#fde9c8" stroke="#b07d1a" stroke-width="2"/><text x="239.0" y="80.0" text-anchor="middle" dominant-baseline="central" font-size="14" font-weight="600" fill="#b07d1a">C</text><line x1="239.0" y1="97.0" x2="239.0" y2="113.0" stroke="#b07d1a" stroke-width="2"/><line x1="318" y1="80" x2="340" y2="80" stroke="#6b7a99" stroke-width="1.6"/><rect x="280" y="63.0" width="38" height="34" rx="9" fill="#f3e7ee" stroke="#6d3b57" stroke-width="2"/><text x="299.0" y="80.0" text-anchor="middle" dominant-baseline="central" font-size="14" font-weight="600" fill="#6d3b57">A</text><line x1="299.0" y1="97.0" x2="299.0" y2="113.0" stroke="#6d3b57" stroke-width="2"/><line x1="378" y1="80" x2="400" y2="80" stroke="#6b7a99" stroke-width="1.6"/><rect x="340" y="63.0" width="38" height="34" rx="9" fill="#f3e7ee" stroke="#6d3b57" stroke-width="2"/><text x="359.0" y="80.0" text-anchor="middle" dominant-baseline="central" font-size="14" font-weight="600" fill="#6d3b57">A</text><line x1="359.0" y1="97.0" x2="359.0" y2="113.0" stroke="#6d3b57" stroke-width="2"/><rect x="400" y="63.0" width="38" height="34" rx="9" fill="#f3e7ee" stroke="#6d3b57" stroke-width="2"/><text x="419.0" y="80.0" text-anchor="middle" dominant-baseline="central" font-size="14" font-weight="600" fill="#6d3b57">A</text><line x1="419.0" y1="97.0" x2="419.0" y2="113.0" stroke="#6d3b57" stroke-width="2"/><defs><marker id="ah" markerWidth="8" markerHeight="8" refX="6" refY="3" orient="auto"><path d="M0,0 L6,3 L0,6 Z" fill="#475569"/></marker></defs><line x1="120" y1="40" x2="300" y2="40" stroke="#475569" stroke-width="1.4" marker-end="url(#ah)"/><text x="170" y="36" text-anchor="middle" dominant-baseline="central" font-size="11" fill="#475569">centre walks</text><text x="95" y="128" text-anchor="middle" dominant-baseline="central" font-size="11" fill="#2f5d43">left-orthonormal</text><text x="240" y="128" text-anchor="middle" dominant-baseline="central" font-size="11" fill="#b07d1a">centre</text><text x="390" y="128" text-anchor="middle" dominant-baseline="central" font-size="11" fill="#6d3b57">right-orthonormal</text></svg>