<svg xmlns="http://www.w3.org/2000/svg" viewBox="0 0 470 238" width="470" height="238" style="max-width:100%;height:auto;font-family:Georgia,'Times New Roman',serif"><text x="235" y="22" text-anchor="middle" dominant-baseline="central" font-size="14" font-style="italic" fill="#1a2233">growing the right environment:   R′ = grow_right(R, A, W)</text><line x1="396" y1="78" x2="324" y2="78" stroke="#2b3a55" stroke-width="2"/><line x1="396" y1="124" x2="323" y2="124" stroke="#2b3a55" stroke-width="2"/><line x1="396" y1="170" x2="324" y2="170" stroke="#2b3a55" stroke-width="2"/><line x1="305" y1="92" x2="305" y2="110" stroke="#2b3a55" stroke-width="2"/><line x1="305" y1="138" x2="305" y2="156" stroke="#2b3a55" stroke-width="2"/><line x1="286" y1="78" x2="238" y2="78" stroke="#2b3a55" stroke-width="2"/><line x1="287" y1="124" x2="238" y2="124" stroke="#2b3a55" stroke-width="2"/><line x1="286" y1="170" x2="238" y2="170" stroke="#2b3a55" stroke-width="2"/><rect x="396" y="62" width="30" height="126" rx="9" fill="#f6ecdd" stroke="#8a6a3b" stroke-width="2"/><text x="411.0" y="125.0" text-anchor="middle" dominant-baseline="central" font-size="18" font-weight="600" fill="#8a6a3b">R</text><rect x="286" y="64" width="38" height="28" rx="9" fill="#e9f0fb" stroke="#2b3a55" stroke-width="2"/><text x="305.0" y="78.0" text-anchor="middle" dominant-baseline="central" font-size="15" font-weight="600" fill="#2b3a55">A</text><rect x="287" y="110" width="36" height="28" rx="9" fill="#e9f0fb" stroke="#2b3a55" stroke-width="2"/><text x="305.0" y="124.0" text-anchor="middle" dominant-baseline="central" font-size="15" font-weight="600" fill="#2b3a55">W</text><rect x="286" y="156" width="38" height="28" rx="9" fill="#eef3fb" stroke="#2b3a55" stroke-width="2"/><text x="305.0" y="170.0" text-anchor="middle" dominant-baseline="central" font-size="15" font-weight="600" fill="#2b3a55">Ā</text><text x="212" y="124" text-anchor="middle" dominant-baseline="central" font-size="22" fill="#1a2233">=</text><rect x="140" y="62" width="30" height="126" rx="9" fill="#f6ecdd" stroke="#8a6a3b" stroke-width="2"/><text x="155.0" y="125.0" text-anchor="middle" dominant-baseline="central" font-size="18" font-weight="600" fill="#8a6a3b">R′</text><line x1="140" y1="78" x2="108" y2="78" stroke="#2b3a55" stroke-width="2"/><line x1="140" y1="124" x2="108" y2="124" stroke="#2b3a55" stroke-width="2"/><line x1="140" y1="170" x2="108" y2="170" stroke="#2b3a55" stroke-width="2"/><text x="78" y="78" text-anchor="middle" dominant-baseline="central" font-size="10" fill="#6b7a99">ket bond</text><text x="78" y="124" text-anchor="middle" dominant-baseline="central" font-size="10" fill="#6b7a99">MPO bond</text><text x="78" y="170" text-anchor="middle" dominant-baseline="central" font-size="10" fill="#6b7a99">bra bond</text><text x="305" y="52" text-anchor="middle" dominant-baseline="central" font-size="10" fill="#475569">ket  A</text><text x="305" y="196" text-anchor="middle" dominant-baseline="central" font-size="10" fill="#475569">bra  Ā</text><text x="235" y="224" text-anchor="middle" dominant-baseline="central" font-size="12" fill="#475569">absorb one site — ket A (top), W (middle), bra Ā (bottom) — into the environment</text></svg>