<svg xmlns="http://www.w3.org/2000/svg" viewBox="0 0 470 176" width="470" height="176" style="max-width:100%;height:auto;font-family:Georgia,'Times New Roman',serif"><text x="235" y="20" text-anchor="middle" dominant-baseline="central" font-size="14" font-style="italic" fill="#1a2233">an MPO — a chain of rank-4 tensors</text><line x1="14" y1="88.0" x2="40" y2="88.0" stroke="#6b7a99" stroke-width="1.6"/><text x="10" y="76.0" text-anchor="middle" dominant-baseline="central" font-size="11" fill="#6b7a99">ℂ¹</text><line x1="80" y1="88.0" x2="126" y2="88.0" stroke="#6b7a99" stroke-width="1.6"/><rect x="40" y="69.0" width="40" height="38" rx="9" fill="#e9f0fb" stroke="#2b3a55" stroke-width="2"/><text x="60.0" y="88.0" text-anchor="middle" dominant-baseline="central" font-size="18" font-weight="600" fill="#2b3a55">W¹</text><line x1="60.0" y1="69.0" x2="60.0" y2="51.0" stroke="#2b3a55" stroke-width="2"/><line x1="60.0" y1="107.0" x2="60.0" y2="125.0" stroke="#2b3a55" stroke-width="2"/><line x1="166" y1="88.0" x2="212" y2="88.0" stroke="#6b7a99" stroke-width="1.6"/><rect x="126" y="69.0" width="40" height="38" rx="9" fill="#e9f0fb" stroke="#2b3a55" stroke-width="2"/><text x="146.0" y="88.0" text-anchor="middle" dominant-baseline="central" font-size="18" font-weight="600" fill="#2b3a55">W²</text><line x1="146.0" y1="69.0" x2="146.0" y2="51.0" stroke="#2b3a55" stroke-width="2"/><line x1="146.0" y1="107.0" x2="146.0" y2="125.0" stroke="#2b3a55" stroke-width="2"/><line x1="252" y1="88.0" x2="298" y2="88.0" stroke="#6b7a99" stroke-width="1.6"/><rect x="212" y="69.0" width="40" height="38" rx="9" fill="#e9f0fb" stroke="#2b3a55" stroke-width="2"/><text x="232.0" y="88.0" text-anchor="middle" dominant-baseline="central" font-size="18" font-weight="600" fill="#2b3a55">W³</text><line x1="232.0" y1="69.0" x2="232.0" y2="51.0" stroke="#2b3a55" stroke-width="2"/><line x1="232.0" y1="107.0" x2="232.0" y2="125.0" stroke="#2b3a55" stroke-width="2"/><line x1="338" y1="88.0" x2="384" y2="88.0" stroke="#6b7a99" stroke-width="1.6"/><rect x="298" y="69.0" width="40" height="38" rx="9" fill="#e9f0fb" stroke="#2b3a55" stroke-width="2"/><text x="318.0" y="88.0" text-anchor="middle" dominant-baseline="central" font-size="18" font-weight="600" fill="#2b3a55">W⁴</text><line x1="318.0" y1="69.0" x2="318.0" y2="51.0" stroke="#2b3a55" stroke-width="2"/><line x1="318.0" y1="107.0" x2="318.0" y2="125.0" stroke="#2b3a55" stroke-width="2"/><rect x="384" y="69.0" width="40" height="38" rx="9" fill="#e9f0fb" stroke="#2b3a55" stroke-width="2"/><text x="404.0" y="88.0" text-anchor="middle" dominant-baseline="central" font-size="18" font-weight="600" fill="#2b3a55">W⁵</text><line x1="404.0" y1="69.0" x2="404.0" y2="51.0" stroke="#2b3a55" stroke-width="2"/><line x1="404.0" y1="107.0" x2="404.0" y2="125.0" stroke="#2b3a55" stroke-width="2"/><line x1="424" y1="88.0" x2="450" y2="88.0" stroke="#6b7a99" stroke-width="1.6"/><text x="454" y="76.0" text-anchor="middle" dominant-baseline="central" font-size="11" fill="#6b7a99">ℂ¹</text><text x="235" y="43.0" text-anchor="middle" dominant-baseline="central" font-size="11" fill="#475569">ket (input)</text><text x="235" y="133.0" text-anchor="middle" dominant-baseline="central" font-size="11" fill="#475569">bra (output)</text><text x="235" y="162" text-anchor="middle" dominant-baseline="central" font-size="12" fill="#475569">physical legs up = ket · down = bra · MPO bonds run left–right · ends are ℂ¹</text></svg>