<svg xmlns="http://www.w3.org/2000/svg" viewBox="0 0 470 210" width="470" height="210" style="max-width:100%;height:auto;font-family:Georgia,'Times New Roman',serif"><text x="235" y="20" text-anchor="middle" dominant-baseline="central" font-size="14" font-style="italic" fill="#1a2233">⟨ψ| H |ψ⟩  — sandwich the MPO between bra and ket → energy</text><line x1="60.0" y1="86" x2="60.0" y2="110" stroke="#2b3a55" stroke-width="2"/><line x1="60.0" y1="140" x2="60.0" y2="164" stroke="#2b3a55" stroke-width="2"/><line x1="80" y1="71.0" x2="126" y2="71.0" stroke="#6b7a99" stroke-width="1.6"/><line x1="80" y1="125.0" x2="126" y2="125.0" stroke="#6b7a99" stroke-width="1.6"/><line x1="80" y1="179.0" x2="126" y2="179.0" stroke="#6b7a99" stroke-width="1.6"/><rect x="40" y="56" width="40" height="30" rx="9" fill="#e9f0fb" stroke="#2b3a55" stroke-width="2"/><text x="60.0" y="71.0" text-anchor="middle" dominant-baseline="central" font-size="13" font-weight="600" fill="#2b3a55">ψ¹</text><rect x="40" y="110" width="40" height="30" rx="9" fill="#e9f0fb" stroke="#2b3a55" stroke-width="2"/><text x="60.0" y="125.0" text-anchor="middle" dominant-baseline="central" font-size="13" font-weight="600" fill="#2b3a55">W¹</text><rect x="40" y="164" width="40" height="30" rx="9" fill="#eef3fb" stroke="#2b3a55" stroke-width="2"/><text x="60.0" y="179.0" text-anchor="middle" dominant-baseline="central" font-size="13" font-weight="600" fill="#2b3a55">ψ̄¹</text><line x1="146.0" y1="86" x2="146.0" y2="110" stroke="#2b3a55" stroke-width="2"/><line x1="146.0" y1="140" x2="146.0" y2="164" stroke="#2b3a55" stroke-width="2"/><line x1="166" y1="71.0" x2="212" y2="71.0" stroke="#6b7a99" stroke-width="1.6"/><line x1="166" y1="125.0" x2="212" y2="125.0" stroke="#6b7a99" stroke-width="1.6"/><line x1="166" y1="179.0" x2="212" y2="179.0" stroke="#6b7a99" stroke-width="1.6"/><rect x="126" y="56" width="40" height="30" rx="9" fill="#e9f0fb" stroke="#2b3a55" stroke-width="2"/><text x="146.0" y="71.0" text-anchor="middle" dominant-baseline="central" font-size="13" font-weight="600" fill="#2b3a55">ψ²</text><rect x="126" y="110" width="40" height="30" rx="9" fill="#e9f0fb" stroke="#2b3a55" stroke-width="2"/><text x="146.0" y="125.0" text-anchor="middle" dominant-baseline="central" font-size="13" font-weight="600" fill="#2b3a55">W²</text><rect x="126" y="164" width="40" height="30" rx="9" fill="#eef3fb" stroke="#2b3a55" stroke-width="2"/><text x="146.0" y="179.0" text-anchor="middle" dominant-baseline="central" font-size="13" font-weight="600" fill="#2b3a55">ψ̄²</text><line x1="232.0" y1="86" x2="232.0" y2="110" stroke="#2b3a55" stroke-width="2"/><line x1="232.0" y1="140" x2="232.0" y2="164" stroke="#2b3a55" stroke-width="2"/><line x1="252" y1="71.0" x2="298" y2="71.0" stroke="#6b7a99" stroke-width="1.6"/><line x1="252" y1="125.0" x2="298" y2="125.0" stroke="#6b7a99" stroke-width="1.6"/><line x1="252" y1="179.0" x2="298" y2="179.0" stroke="#6b7a99" stroke-width="1.6"/><rect x="212" y="56" width="40" height="30" rx="9" fill="#e9f0fb" stroke="#2b3a55" stroke-width="2"/><text x="232.0" y="71.0" text-anchor="middle" dominant-baseline="central" font-size="13" font-weight="600" fill="#2b3a55">ψ³</text><rect x="212" y="110" width="40" height="30" rx="9" fill="#e9f0fb" stroke="#2b3a55" stroke-width="2"/><text x="232.0" y="125.0" text-anchor="middle" dominant-baseline="central" font-size="13" font-weight="600" fill="#2b3a55">W³</text><rect x="212" y="164" width="40" height="30" rx="9" fill="#eef3fb" stroke="#2b3a55" stroke-width="2"/><text x="232.0" y="179.0" text-anchor="middle" dominant-baseline="central" font-size="13" font-weight="600" fill="#2b3a55">ψ̄³</text><line x1="318.0" y1="86" x2="318.0" y2="110" stroke="#2b3a55" stroke-width="2"/><line x1="318.0" y1="140" x2="318.0" y2="164" stroke="#2b3a55" stroke-width="2"/><line x1="338" y1="71.0" x2="384" y2="71.0" stroke="#6b7a99" stroke-width="1.6"/><line x1="338" y1="125.0" x2="384" y2="125.0" stroke="#6b7a99" stroke-width="1.6"/><line x1="338" y1="179.0" x2="384" y2="179.0" stroke="#6b7a99" stroke-width="1.6"/><rect x="298" y="56" width="40" height="30" rx="9" fill="#e9f0fb" stroke="#2b3a55" stroke-width="2"/><text x="318.0" y="71.0" text-anchor="middle" dominant-baseline="central" font-size="13" font-weight="600" fill="#2b3a55">ψ⁴</text><rect x="298" y="110" width="40" height="30" rx="9" fill="#e9f0fb" stroke="#2b3a55" stroke-width="2"/><text x="318.0" y="125.0" text-anchor="middle" dominant-baseline="central" font-size="13" font-weight="600" fill="#2b3a55">W⁴</text><rect x="298" y="164" width="40" height="30" rx="9" fill="#eef3fb" stroke="#2b3a55" stroke-width="2"/><text x="318.0" y="179.0" text-anchor="middle" dominant-baseline="central" font-size="13" font-weight="600" fill="#2b3a55">ψ̄⁴</text><line x1="404.0" y1="86" x2="404.0" y2="110" stroke="#2b3a55" stroke-width="2"/><line x1="404.0" y1="140" x2="404.0" y2="164" stroke="#2b3a55" stroke-width="2"/><rect x="384" y="56" width="40" height="30" rx="9" fill="#e9f0fb" stroke="#2b3a55" stroke-width="2"/><text x="404.0" y="71.0" text-anchor="middle" dominant-baseline="central" font-size="13" font-weight="600" fill="#2b3a55">ψ⁵</text><rect x="384" y="110" width="40" height="30" rx="9" fill="#e9f0fb" stroke="#2b3a55" stroke-width="2"/><text x="404.0" y="125.0" text-anchor="middle" dominant-baseline="central" font-size="13" font-weight="600" fill="#2b3a55">W⁵</text><rect x="384" y="164" width="40" height="30" rx="9" fill="#eef3fb" stroke="#2b3a55" stroke-width="2"/><text x="404.0" y="179.0" text-anchor="middle" dominant-baseline="central" font-size="13" font-weight="600" fill="#2b3a55">ψ̄⁵</text><text x="28" y="71.0" text-anchor="middle" dominant-baseline="central" font-size="12" fill="#475569">|ψ⟩</text><text x="28" y="125.0" text-anchor="middle" dominant-baseline="central" font-size="12" fill="#475569">H</text><text x="28" y="179.0" text-anchor="middle" dominant-baseline="central" font-size="12" fill="#475569">⟨ψ|</text><text x="235" y="198" text-anchor="middle" dominant-baseline="central" font-size="12" fill="#475569">no open legs — the whole network closes to one number</text></svg>