<svg xmlns="http://www.w3.org/2000/svg" viewBox="0 0 470 150" width="470" height="150" style="max-width:100%;height:auto;font-family:Georgia,'Times New Roman',serif"><text x="170" y="20" text-anchor="middle" dominant-baseline="central" font-size="14" font-weight="normal" font-style="italic" fill="#1a2233">|ψ⟩  across the central cut</text><rect x="35.0" y="50.0" width="150" height="40" rx="9" fill="#e9f0fb" stroke="#2b3a55" stroke-width="2"/><text x="110" y="70" text-anchor="middle" dominant-baseline="central" font-size="18" font-weight="600" fill="#2b3a55">ψ</text><line x1="50" y1="90" x2="50" y2="116" stroke="#2b3a55" stroke-width="2"/><line x1="74" y1="90" x2="74" y2="116" stroke="#2b3a55" stroke-width="2"/><line x1="98" y1="90" x2="98" y2="116" stroke="#2b3a55" stroke-width="2"/><line x1="122" y1="90" x2="122" y2="116" stroke="#2b3a55" stroke-width="2"/><line x1="146" y1="90" x2="146" y2="116" stroke="#2b3a55" stroke-width="2"/><line x1="170" y1="90" x2="170" y2="116" stroke="#2b3a55" stroke-width="2"/><line x1="110" y1="48" x2="110" y2="130" stroke="#c0392b" stroke-width="1.8" stroke-dasharray="5 4"/><text x="228" y="70" text-anchor="middle" dominant-baseline="central" font-size="22" font-weight="normal" font-style="normal" fill="#1a2233">→</text><rect x="272.0" y="50.0" width="56" height="40" rx="9" fill="#e9f0fb" stroke="#2b3a55" stroke-width="2"/><text x="300" y="70" text-anchor="middle" dominant-baseline="central" font-size="18" font-weight="600" fill="#2b3a55">L</text><rect x="372.0" y="50.0" width="56" height="40" rx="9" fill="#e9f0fb" stroke="#2b3a55" stroke-width="2"/><text x="400" y="70" text-anchor="middle" dominant-baseline="central" font-size="18" font-weight="600" fill="#2b3a55">R</text><line x1="328" y1="70" x2="372" y2="70" stroke="#6b7a99" stroke-width="1.6"/><text x="350" y="54" text-anchor="middle" dominant-baseline="central" font-size="13" font-weight="normal" font-style="italic" fill="#6b7a99">σᵢ</text><line x1="285" y1="90" x2="285" y2="112" stroke="#2b3a55" stroke-width="2"/><line x1="305" y1="90" x2="305" y2="112" stroke="#2b3a55" stroke-width="2"/><line x1="325" y1="90" x2="325" y2="112" stroke="#2b3a55" stroke-width="2"/><line x1="385" y1="90" x2="385" y2="112" stroke="#2b3a55" stroke-width="2"/><line x1="405" y1="90" x2="405" y2="112" stroke="#2b3a55" stroke-width="2"/><line x1="425" y1="90" x2="425" y2="112" stroke="#2b3a55" stroke-width="2"/><text x="350" y="132" text-anchor="middle" dominant-baseline="central" font-size="12" font-weight="normal" font-style="normal" fill="#475569">Schmidt coefficients σᵢ on the bond</text></svg>