<svg xmlns="http://www.w3.org/2000/svg" viewBox="0 0 470 185" width="470" height="185" style="max-width:100%;height:auto;font-family:Georgia,'Times New Roman',serif"><rect x="50.0" y="31.0" width="40" height="38" rx="9" fill="#e9f0fb" stroke="#2b3a55" stroke-width="2"/><text x="70" y="50" text-anchor="middle" dominant-baseline="central" font-size="18" font-weight="600" fill="#2b3a55">A</text><rect x="130.0" y="31.0" width="40" height="38" rx="9" fill="#e9f0fb" stroke="#2b3a55" stroke-width="2"/><text x="150" y="50" text-anchor="middle" dominant-baseline="central" font-size="18" font-weight="600" fill="#2b3a55">A</text><rect x="207.0" y="31.0" width="36" height="38" rx="9" fill="#e9f0fb" stroke="#2b3a55" stroke-width="2"/><text x="225" y="50" text-anchor="middle" dominant-baseline="central" font-size="18" font-weight="600" fill="#2b3a55">v</text><line x1="90" y1="50" x2="130" y2="50" stroke="#2b3a55" stroke-width="2"/><line x1="170" y1="50" x2="207" y2="50" stroke="#2b3a55" stroke-width="2"/><line x1="50" y1="50" x2="24" y2="50" stroke="#2b3a55" stroke-width="2"/><rect x="44" y="24" width="128" height="52" rx="8" fill="none" stroke="#c0392b" stroke-width="1.6" stroke-dasharray="5 4"/><text x="300" y="42" text-anchor="start" dominant-baseline="central" font-size="13" font-weight="normal" font-style="normal" fill="#1a2233">(A·A)·v : build a matrix first</text><text x="300" y="60" text-anchor="start" dominant-baseline="central" font-size="13" font-weight="600" font-style="normal" fill="#c0392b">O(n³)</text><rect x="50.0" y="116.0" width="40" height="38" rx="9" fill="#e9f0fb" stroke="#2b3a55" stroke-width="2"/><text x="70" y="135" text-anchor="middle" dominant-baseline="central" font-size="18" font-weight="600" fill="#2b3a55">A</text><rect x="130.0" y="116.0" width="40" height="38" rx="9" fill="#e9f0fb" stroke="#2b3a55" stroke-width="2"/><text x="150" y="135" text-anchor="middle" dominant-baseline="central" font-size="18" font-weight="600" fill="#2b3a55">A</text><rect x="207.0" y="116.0" width="36" height="38" rx="9" fill="#e9f0fb" stroke="#2b3a55" stroke-width="2"/><text x="225" y="135" text-anchor="middle" dominant-baseline="central" font-size="18" font-weight="600" fill="#2b3a55">v</text><line x1="90" y1="135" x2="130" y2="135" stroke="#2b3a55" stroke-width="2"/><line x1="170" y1="135" x2="207" y2="135" stroke="#2b3a55" stroke-width="2"/><line x1="50" y1="135" x2="24" y2="135" stroke="#2b3a55" stroke-width="2"/><rect x="128" y="109" width="118" height="52" rx="8" fill="none" stroke="#c0392b" stroke-width="1.6" stroke-dasharray="5 4"/><text x="300" y="127" text-anchor="start" dominant-baseline="central" font-size="13" font-weight="normal" font-style="normal" fill="#1a2233">A·(A·v) : keep a vector</text><text x="300" y="145" text-anchor="start" dominant-baseline="central" font-size="13" font-weight="600" font-style="normal" fill="#c0392b">O(n²)</text></svg>