<svg xmlns="http://www.w3.org/2000/svg" viewBox="0 0 360 155" width="360" height="155" style="max-width:100%;height:auto;font-family:Georgia,'Times New Roman',serif"><text x="95" y="20" text-anchor="middle" dominant-baseline="central" font-size="13" font-weight="normal" font-style="italic" fill="#1a2233">H : d^N ← d^N</text><rect x="65.0" y="45.0" width="60" height="80" rx="9" fill="#e9f0fb" stroke="#2b3a55" stroke-width="2"/><text x="95" y="85" text-anchor="middle" dominant-baseline="central" font-size="18" font-weight="600" fill="#2b3a55">H</text><line x1="65" y1="55" x2="40" y2="55" stroke="#2b3a55" stroke-width="2"/><line x1="125" y1="55" x2="150" y2="55" stroke="#2b3a55" stroke-width="2"/><line x1="65" y1="75" x2="40" y2="75" stroke="#2b3a55" stroke-width="2"/><line x1="125" y1="75" x2="150" y2="75" stroke="#2b3a55" stroke-width="2"/><line x1="65" y1="95" x2="40" y2="95" stroke="#2b3a55" stroke-width="2"/><line x1="125" y1="95" x2="150" y2="95" stroke="#2b3a55" stroke-width="2"/><line x1="65" y1="115" x2="40" y2="115" stroke="#2b3a55" stroke-width="2"/><line x1="125" y1="115" x2="150" y2="115" stroke="#2b3a55" stroke-width="2"/><text x="95" y="140" text-anchor="middle" dominant-baseline="central" font-size="11" font-weight="normal" font-style="normal" fill="#475569">N legs left, N right</text><text x="280" y="20" text-anchor="middle" dominant-baseline="central" font-size="13" font-weight="normal" font-style="italic" fill="#1a2233">|ψ⟩ : d^N</text><rect x="250.0" y="45.0" width="60" height="80" rx="9" fill="#e9f0fb" stroke="#2b3a55" stroke-width="2"/><text x="280" y="85" text-anchor="middle" dominant-baseline="central" font-size="18" font-weight="600" fill="#2b3a55">ψ</text><line x1="250" y1="55" x2="225" y2="55" stroke="#2b3a55" stroke-width="2"/><line x1="250" y1="75" x2="225" y2="75" stroke="#2b3a55" stroke-width="2"/><line x1="250" y1="95" x2="225" y2="95" stroke="#2b3a55" stroke-width="2"/><line x1="250" y1="115" x2="225" y2="115" stroke="#2b3a55" stroke-width="2"/><text x="280" y="140" text-anchor="middle" dominant-baseline="central" font-size="11" font-weight="normal" font-style="normal" fill="#475569">dense = one big TensorMap</text></svg>