<svg xmlns="http://www.w3.org/2000/svg" viewBox="0 0 500 130" width="500" height="130" style="max-width:100%;height:auto;font-family:Georgia,'Times New Roman',serif"><text x="90" y="20" text-anchor="middle" dominant-baseline="central" font-size="12" font-weight="normal" font-style="normal" fill="#475569">matmul</text><rect x="42.0" y="55.0" width="36" height="40" rx="9" fill="#e9f0fb" stroke="#2b3a55" stroke-width="2"/><text x="60" y="75" text-anchor="middle" dominant-baseline="central" font-size="18" font-weight="600" fill="#2b3a55">A</text><rect x="102.0" y="55.0" width="36" height="40" rx="9" fill="#e9f0fb" stroke="#2b3a55" stroke-width="2"/><text x="120" y="75" text-anchor="middle" dominant-baseline="central" font-size="18" font-weight="600" fill="#2b3a55">B</text><line x1="78" y1="75" x2="102" y2="75" stroke="#2b3a55" stroke-width="2"/><line x1="42" y1="75" x2="24" y2="75" stroke="#2b3a55" stroke-width="2"/><line x1="138" y1="75" x2="156" y2="75" stroke="#2b3a55" stroke-width="2"/><text x="280" y="20" text-anchor="middle" dominant-baseline="central" font-size="12" font-weight="normal" font-style="normal" fill="#475569">inner → scalar</text><rect x="232.0" y="55.0" width="36" height="40" rx="9" fill="#e9f0fb" stroke="#2b3a55" stroke-width="2"/><text x="250" y="75" text-anchor="middle" dominant-baseline="central" font-size="18" font-weight="600" fill="#2b3a55">v̄</text><rect x="292.0" y="55.0" width="36" height="40" rx="9" fill="#e9f0fb" stroke="#2b3a55" stroke-width="2"/><text x="310" y="75" text-anchor="middle" dominant-baseline="central" font-size="18" font-weight="600" fill="#2b3a55">v</text><line x1="268" y1="75" x2="292" y2="75" stroke="#2b3a55" stroke-width="2"/><text x="440" y="20" text-anchor="middle" dominant-baseline="central" font-size="12" font-weight="normal" font-style="normal" fill="#475569">outer (no join)</text><rect x="422.0" y="43.0" width="36" height="34" rx="9" fill="#e9f0fb" stroke="#2b3a55" stroke-width="2"/><text x="440" y="60" text-anchor="middle" dominant-baseline="central" font-size="18" font-weight="600" fill="#2b3a55">v</text><rect x="422.0" y="83.0" width="36" height="34" rx="9" fill="#e9f0fb" stroke="#2b3a55" stroke-width="2"/><text x="440" y="100" text-anchor="middle" dominant-baseline="central" font-size="18" font-weight="600" fill="#2b3a55">w</text><line x1="422" y1="60" x2="400" y2="60" stroke="#2b3a55" stroke-width="2"/><line x1="422" y1="100" x2="400" y2="100" stroke="#2b3a55" stroke-width="2"/></svg>