<svg xmlns="http://www.w3.org/2000/svg" viewBox="0 0 560 270" width="560" height="270" style="max-width:100%;height:auto;font-family:Georgia,'Times New Roman',serif"><rect x="70.0" y="14.0" width="52" height="40" rx="9" fill="#e9f0fb" stroke="#2b3a55" stroke-width="2"/><text x="96" y="34" text-anchor="middle" dominant-baseline="central" font-size="18" font-weight="600" fill="#2b3a55">v</text><line x1="70" y1="34" x2="38" y2="34" stroke="#2b3a55" stroke-width="2"/><text x="30" y="34" text-anchor="middle" dominant-baseline="central" font-style="italic" font-size="15" fill="#475569">V</text><text x="190" y="34" text-anchor="start" dominant-baseline="central" font-size="14" font-weight="normal" font-style="normal" fill="#1a2233">vector — a box with one (codomain) leg</text><rect x="70.0" y="68.0" width="52" height="40" rx="9" fill="#e9f0fb" stroke="#2b3a55" stroke-width="2"/><text x="96" y="88" text-anchor="middle" dominant-baseline="central" font-size="18" font-weight="600" fill="#2b3a55">A</text><line x1="70" y1="88" x2="38" y2="88" stroke="#2b3a55" stroke-width="2"/><text x="30" y="88" text-anchor="middle" dominant-baseline="central" font-style="italic" font-size="15" fill="#475569">W</text><line x1="122" y1="88" x2="154" y2="88" stroke="#2b3a55" stroke-width="2"/><text x="162" y="88" text-anchor="middle" dominant-baseline="central" font-style="italic" font-size="15" fill="#475569">V</text><text x="190" y="88" text-anchor="start" dominant-baseline="central" font-size="14" font-weight="normal" font-style="normal" fill="#1a2233">matrix — codomain (left) ← domain (right)</text><rect x="52.0" y="122.0" width="44" height="40" rx="9" fill="#e9f0fb" stroke="#2b3a55" stroke-width="2"/><text x="74" y="142" text-anchor="middle" dominant-baseline="central" font-size="18" font-weight="600" fill="#2b3a55">A</text><rect x="118.0" y="122.0" width="44" height="40" rx="9" fill="#e9f0fb" stroke="#2b3a55" stroke-width="2"/><text x="140" y="142" text-anchor="middle" dominant-baseline="central" font-size="18" font-weight="600" fill="#2b3a55">B</text><line x1="96" y1="142" x2="118" y2="142" stroke="#2b3a55" stroke-width="2"/><line x1="52" y1="142" x2="30" y2="142" stroke="#2b3a55" stroke-width="2"/><line x1="162" y1="142" x2="184" y2="142" stroke="#2b3a55" stroke-width="2"/><text x="210" y="142" text-anchor="start" dominant-baseline="central" font-size="14" font-weight="normal" font-style="normal" fill="#1a2233">joined legs — a contracted (summed) index</text><rect x="70.0" y="176.0" width="52" height="40" rx="9" fill="#e9f0fb" stroke="#2b3a55" stroke-width="2"/><text x="96" y="196" text-anchor="middle" dominant-baseline="central" font-size="18" font-weight="600" fill="#2b3a55">c</text><text x="190" y="196" text-anchor="start" dominant-baseline="central" font-size="14" font-weight="normal" font-style="normal" fill="#1a2233">no open legs — a scalar</text><line x1="40" y1="232" x2="150" y2="232" stroke="#2b3a55" stroke-width="2"/><polygon points="150,232 141,227.5 141,236.5" fill="#2b3a55"/><text x="165" y="232" text-anchor="start" dominant-baseline="central" font-style="italic" font-size="15" fill="#475569">V</text><line x1="40" y1="252" x2="150" y2="252" stroke="#2b3a55" stroke-width="2"/><polygon points="40,252 49,247.5 49,256.5" fill="#2b3a55"/><text x="165" y="252" text-anchor="start" dominant-baseline="central" font-style="italic" font-size="15" fill="#475569">V′</text><text x="210" y="240" text-anchor="start" dominant-baseline="central" font-size="14" font-weight="normal" font-style="normal" fill="#1a2233">arrow direction — a space V vs. its dual V′</text></svg>