<svg xmlns="http://www.w3.org/2000/svg" viewBox="0 0 420 150" width="420" height="150" style="max-width:100%;height:auto;font-family:Georgia,'Times New Roman',serif"><text x="200" y="20" text-anchor="middle" dominant-baseline="central" font-size="14" font-weight="normal" font-style="italic" fill="#1a2233">ZᵢZᵢ₊₁  embedded in identities</text><rect x="33.0" y="61.0" width="34" height="38" rx="9" fill="#f3f4f6" stroke="#9aa3af" stroke-width="2"/><text x="50" y="80" text-anchor="middle" dominant-baseline="central" font-size="18" font-weight="600" fill="#9aa3af">I</text><line x1="50" y1="61" x2="50" y2="46" stroke="#2b3a55" stroke-width="2"/><line x1="50" y1="99" x2="50" y2="114" stroke="#2b3a55" stroke-width="2"/><rect x="93.0" y="61.0" width="34" height="38" rx="9" fill="#f3f4f6" stroke="#9aa3af" stroke-width="2"/><text x="110" y="80" text-anchor="middle" dominant-baseline="central" font-size="18" font-weight="600" fill="#9aa3af">I</text><line x1="110" y1="61" x2="110" y2="46" stroke="#2b3a55" stroke-width="2"/><line x1="110" y1="99" x2="110" y2="114" stroke="#2b3a55" stroke-width="2"/><rect x="153.0" y="61.0" width="34" height="38" rx="9" fill="#e9f0fb" stroke="#2b3a55" stroke-width="2"/><text x="170" y="80" text-anchor="middle" dominant-baseline="central" font-size="18" font-weight="600" fill="#2b3a55">Z</text><line x1="170" y1="61" x2="170" y2="46" stroke="#2b3a55" stroke-width="2"/><line x1="170" y1="99" x2="170" y2="114" stroke="#2b3a55" stroke-width="2"/><rect x="213.0" y="61.0" width="34" height="38" rx="9" fill="#e9f0fb" stroke="#2b3a55" stroke-width="2"/><text x="230" y="80" text-anchor="middle" dominant-baseline="central" font-size="18" font-weight="600" fill="#2b3a55">Z</text><line x1="230" y1="61" x2="230" y2="46" stroke="#2b3a55" stroke-width="2"/><line x1="230" y1="99" x2="230" y2="114" stroke="#2b3a55" stroke-width="2"/><rect x="273.0" y="61.0" width="34" height="38" rx="9" fill="#f3f4f6" stroke="#9aa3af" stroke-width="2"/><text x="290" y="80" text-anchor="middle" dominant-baseline="central" font-size="18" font-weight="600" fill="#9aa3af">I</text><line x1="290" y1="61" x2="290" y2="46" stroke="#2b3a55" stroke-width="2"/><line x1="290" y1="99" x2="290" y2="114" stroke="#2b3a55" stroke-width="2"/><rect x="333.0" y="61.0" width="34" height="38" rx="9" fill="#f3f4f6" stroke="#9aa3af" stroke-width="2"/><text x="350" y="80" text-anchor="middle" dominant-baseline="central" font-size="18" font-weight="600" fill="#9aa3af">I</text><line x1="350" y1="61" x2="350" y2="46" stroke="#2b3a55" stroke-width="2"/><line x1="350" y1="99" x2="350" y2="114" stroke="#2b3a55" stroke-width="2"/><text x="200" y="138" text-anchor="middle" dominant-baseline="central" font-size="12" font-weight="normal" font-style="normal" fill="#475569">two Z's act, the rest are identity wires</text></svg>