<svg xmlns="http://www.w3.org/2000/svg" viewBox="0 0 420 160" width="420" height="160" style="max-width:100%;height:auto;font-family:Georgia,'Times New Roman',serif"><text x="95" y="24" text-anchor="middle" dominant-baseline="central" font-size="14" font-weight="normal" font-style="italic" fill="#1a2233">W ← V</text><rect x="69.0" y="58.0" width="52" height="44" rx="9" fill="#e9f0fb" stroke="#2b3a55" stroke-width="2"/><text x="95" y="80" text-anchor="middle" dominant-baseline="central" font-size="18" font-weight="600" fill="#2b3a55">A</text><line x1="69" y1="80" x2="30" y2="80" stroke="#2b3a55" stroke-width="2"/><text x="22" y="80" text-anchor="middle" dominant-baseline="central" font-style="italic" font-size="15" fill="#475569">W</text><line x1="121" y1="80" x2="162" y2="80" stroke="#2b3a55" stroke-width="2"/><polygon points="162,80 153,75.5 153,84.5" fill="#2b3a55"/><text x="172" y="80" text-anchor="start" dominant-baseline="central" font-style="italic" font-size="15" fill="#475569">V</text><text x="220" y="80" text-anchor="middle" dominant-baseline="central" font-size="26" font-weight="normal" font-style="normal" fill="#1a2233">≅</text><text x="330" y="24" text-anchor="middle" dominant-baseline="central" font-size="14" font-weight="normal" font-style="italic" fill="#1a2233">W ⊗ V′</text><rect x="304.0" y="58.0" width="52" height="44" rx="9" fill="#e9f0fb" stroke="#2b3a55" stroke-width="2"/><text x="330" y="80" text-anchor="middle" dominant-baseline="central" font-size="18" font-weight="600" fill="#2b3a55">A</text><line x1="304" y1="70" x2="262" y2="70" stroke="#2b3a55" stroke-width="2"/><text x="252" y="70" text-anchor="middle" dominant-baseline="central" font-style="italic" font-size="15" fill="#475569">W</text><path d="M 330 102 q 0 28 -40 28 L 262 130" fill="none" stroke="#2b3a55" stroke-width="2"/><polygon points="262,130 271,125.5 271,134.5" fill="#2b3a55"/><text x="244" y="130" text-anchor="middle" dominant-baseline="central" font-style="italic" font-size="15" fill="#475569">V′</text></svg>