<svg xmlns="http://www.w3.org/2000/svg" viewBox="0 0 410 150" width="410" height="150" style="max-width:100%;height:auto;font-family:Georgia,'Times New Roman',serif"><rect x="35.0" y="52.0" width="50" height="56" rx="9" fill="#e9f0fb" stroke="#2b3a55" stroke-width="2"/><text x="60" y="80" text-anchor="middle" dominant-baseline="central" font-size="18" font-weight="600" fill="#2b3a55">M</text><line x1="35" y1="70" x2="18" y2="70" stroke="#2b3a55" stroke-width="2"/><line x1="35" y1="90" x2="18" y2="90" stroke="#2b3a55" stroke-width="2"/><line x1="85" y1="80" x2="102" y2="80" stroke="#2b3a55" stroke-width="2"/><text x="128" y="80" text-anchor="middle" dominant-baseline="central" font-size="22" font-weight="normal" font-style="normal" fill="#1a2233">=</text><rect x="167.0" y="52.0" width="46" height="56" rx="9" fill="#e9f0fb" stroke="#2b3a55" stroke-width="2"/><text x="190" y="80" text-anchor="middle" dominant-baseline="central" font-size="18" font-weight="600" fill="#2b3a55">U</text><polygon points="265,56 289,80 265,104 241,80" fill="#fbeede" stroke="#9a6a1e" stroke-width="2"/><text x="265" y="80" text-anchor="middle" dominant-baseline="central" font-size="16" font-weight="600" fill="#9a6a1e">S</text><rect x="322.0" y="52.0" width="46" height="56" rx="9" fill="#e9f0fb" stroke="#2b3a55" stroke-width="2"/><text x="345" y="80" text-anchor="middle" dominant-baseline="central" font-size="18" font-weight="600" fill="#2b3a55">V</text><line x1="167" y1="70" x2="150" y2="70" stroke="#2b3a55" stroke-width="2"/><line x1="167" y1="90" x2="150" y2="90" stroke="#2b3a55" stroke-width="2"/><line x1="213" y1="80" x2="241" y2="80" stroke="#6b7a99" stroke-width="1.6"/><text x="227" y="64" text-anchor="middle" dominant-baseline="central" font-style="italic" font-size="13" fill="#475569">r</text><line x1="289" y1="80" x2="322" y2="80" stroke="#6b7a99" stroke-width="1.6"/><text x="305" y="64" text-anchor="middle" dominant-baseline="central" font-style="italic" font-size="13" fill="#475569">r</text><line x1="368" y1="80" x2="386" y2="80" stroke="#2b3a55" stroke-width="2"/><text x="265" y="128" text-anchor="middle" dominant-baseline="central" font-size="12" font-weight="normal" font-style="normal" fill="#475569">bond = chosen cut, dim r</text></svg>