<svg xmlns="http://www.w3.org/2000/svg" viewBox="0 0 320 150" width="320" height="150" style="max-width:100%;height:auto;font-family:Georgia,'Times New Roman',serif"><rect x="37.0" y="47.0" width="46" height="66" rx="9" fill="#e9f0fb" stroke="#2b3a55" stroke-width="2"/><text x="60" y="80" text-anchor="middle" dominant-baseline="central" font-size="18" font-weight="600" fill="#2b3a55">U</text><polygon points="150,54 176,80 150,106 124,80" fill="#fbeede" stroke="#9a6a1e" stroke-width="2"/><text x="150" y="80" text-anchor="middle" dominant-baseline="central" font-size="16" font-weight="600" fill="#9a6a1e">S</text><rect x="222.0" y="47.0" width="46" height="66" rx="9" fill="#e9f0fb" stroke="#2b3a55" stroke-width="2"/><text x="245" y="80" text-anchor="middle" dominant-baseline="central" font-size="18" font-weight="600" fill="#2b3a55">Vᵀ</text><line x1="37" y1="68" x2="20" y2="68" stroke="#2b3a55" stroke-width="2"/><line x1="37" y1="92" x2="20" y2="92" stroke="#2b3a55" stroke-width="2"/><line x1="83" y1="80" x2="124" y2="80" stroke="#6b7a99" stroke-width="1.6"/><text x="103" y="62" text-anchor="middle" dominant-baseline="central" font-size="12" font-weight="normal" font-style="italic" fill="#6b7a99">k</text><line x1="176" y1="80" x2="222" y2="80" stroke="#6b7a99" stroke-width="1.6"/><text x="199" y="62" text-anchor="middle" dominant-baseline="central" font-size="12" font-weight="normal" font-style="italic" fill="#6b7a99">k</text><line x1="268" y1="80" x2="286" y2="80" stroke="#2b3a55" stroke-width="2"/><polygon points="150,54 176,80 150,106 124,80" fill="none" stroke="#b9c4d6" stroke-width="2"/><text x="150" y="116" text-anchor="middle" dominant-baseline="central" font-size="12" font-weight="normal" font-style="normal" fill="#475569">keep largest k singular values</text><text x="150" y="134" text-anchor="middle" dominant-baseline="central" font-size="12" font-weight="normal" font-style="normal" fill="#c0392b">discarded weight → truncation error ε</text></svg>