<svg xmlns="http://www.w3.org/2000/svg" viewBox="0 0 640 176" width="640" height="176" style="max-width:100%;height:auto;font-family:Georgia,'Times New Roman',serif"><text x="320.0" y="20" text-anchor="middle" dominant-baseline="central" font-size="14" font-style="italic" fill="#1a2233">two-site gate — merge, apply, split with a truncated SVD</text><line x1="12" y1="78" x2="30" y2="78" stroke="#6b7a99" stroke-width="1.6"/><rect x="30" y="60.0" width="38" height="36" rx="9" fill="#e9f0fb" stroke="#2b3a55" stroke-width="2"/><text x="49.0" y="78.0" text-anchor="middle" dominant-baseline="central" font-size="18" font-weight="600" fill="#2b3a55">Aᵢ</text><line x1="49.0" y1="96.0" x2="49.0" y2="112.0" stroke="#2b3a55" stroke-width="2"/><line x1="68" y1="78" x2="86" y2="78" stroke="#6b7a99" stroke-width="1.6"/><rect x="86" y="60.0" width="38" height="36" rx="9" fill="#e9f0fb" stroke="#2b3a55" stroke-width="2"/><text x="105.0" y="78.0" text-anchor="middle" dominant-baseline="central" font-size="18" font-weight="600" fill="#2b3a55">Aᵢ₊₁</text><line x1="105.0" y1="96.0" x2="105.0" y2="112.0" stroke="#2b3a55" stroke-width="2"/><line x1="124" y1="78" x2="138" y2="78" stroke="#6b7a99" stroke-width="1.6"/><line x1="142" y1="78" x2="172" y2="78" stroke="#475569" stroke-width="1.6"/><polygon points="172,78 164,73 164,83" fill="#475569"/><line x1="172" y1="78" x2="186" y2="78" stroke="#6b7a99" stroke-width="1.6"/><rect x="186" y="60.0" width="70" height="36" rx="9" fill="#e9f0fb" stroke="#2b3a55" stroke-width="2"/><text x="221.0" y="78.0" text-anchor="middle" dominant-baseline="central" font-size="18" font-weight="600" fill="#2b3a55">θ</text><line x1="206.0" y1="96.0" x2="206.0" y2="110.0" stroke="#2b3a55" stroke-width="2"/><line x1="236.0" y1="96.0" x2="236.0" y2="110.0" stroke="#2b3a55" stroke-width="2"/><rect x="191.0" y="110.0" width="60" height="30" rx="9" fill="#eaf6ee" stroke="#2e7d4f" stroke-width="2"/><text x="221.0" y="125.0" text-anchor="middle" dominant-baseline="central" font-size="18" font-weight="600" fill="#2e7d4f">g</text><line x1="206.0" y1="140.0" x2="206.0" y2="156.0" stroke="#2b3a55" stroke-width="2"/><line x1="236.0" y1="140.0" x2="236.0" y2="156.0" stroke="#2b3a55" stroke-width="2"/><line x1="256" y1="78" x2="270" y2="78" stroke="#6b7a99" stroke-width="1.6"/><line x1="274" y1="78" x2="304" y2="78" stroke="#475569" stroke-width="1.6"/><polygon points="304,78 296,73 296,83" fill="#475569"/><line x1="304" y1="78" x2="318" y2="78" stroke="#6b7a99" stroke-width="1.6"/><rect x="318" y="60.0" width="38" height="36" rx="9" fill="#e9f0fb" stroke="#2b3a55" stroke-width="2"/><text x="337.0" y="78.0" text-anchor="middle" dominant-baseline="central" font-size="18" font-weight="600" fill="#2b3a55">U</text><line x1="337.0" y1="96.0" x2="337.0" y2="112.0" stroke="#2b3a55" stroke-width="2"/><line x1="356" y1="78" x2="374" y2="78" stroke="#6b7a99" stroke-width="1.6"/><text x="374" y="66" text-anchor="middle" dominant-baseline="central" font-size="12" fill="#6b7a99">k</text><polygon points="396,58 416,78 396,98 376,78" fill="#fbeede" stroke="#9a6a1e" stroke-width="2"/><text x="396" y="78" text-anchor="middle" dominant-baseline="central" font-size="16" font-weight="600" fill="#9a6a1e">S</text><line x1="416" y1="78" x2="434" y2="78" stroke="#6b7a99" stroke-width="1.6"/><text x="425" y="66" text-anchor="middle" dominant-baseline="central" font-size="12" fill="#6b7a99">k</text><rect x="434" y="60.0" width="38" height="36" rx="9" fill="#e9f0fb" stroke="#2b3a55" stroke-width="2"/><text x="453.0" y="78.0" text-anchor="middle" dominant-baseline="central" font-size="18" font-weight="600" fill="#2b3a55">Vᵀ</text><line x1="453.0" y1="96.0" x2="453.0" y2="112.0" stroke="#2b3a55" stroke-width="2"/><line x1="472" y1="78" x2="486" y2="78" stroke="#6b7a99" stroke-width="1.6"/><text x="320.0" y="164" text-anchor="middle" dominant-baseline="central" font-size="12" fill="#c0392b">the new bond k can be truncated — optimally, in the right gauge</text></svg>