<svg xmlns="http://www.w3.org/2000/svg" viewBox="0 0 500 158" width="500" height="158" style="max-width:100%;height:auto;font-family:Georgia,'Times New Roman',serif"><text x="250.0" y="20" text-anchor="middle" dominant-baseline="central" font-size="14" font-style="italic" fill="#1a2233">mixed-canonical form</text><line x1="30" y1="70" x2="36.0" y2="70" stroke="#6b7a99" stroke-width="1.6"/><line x1="76.0" y1="70" x2="126.0" y2="70" stroke="#6b7a99" stroke-width="1.6"/><polygon points="36.0,50.0 76.0,70 36.0,90.0" fill="#e9f0fb" stroke="#2b3a55" stroke-width="2"/><text x="49.333333333333336" y="70" text-anchor="middle" dominant-baseline="central" font-size="15" font-weight="600" fill="#2b3a55">A</text><line x1="56" y1="90.0" x2="56" y2="105.0" stroke="#2b3a55" stroke-width="2"/><line x1="166.0" y1="70" x2="216.0" y2="70" stroke="#6b7a99" stroke-width="1.6"/><polygon points="126.0,50.0 166.0,70 126.0,90.0" fill="#e9f0fb" stroke="#2b3a55" stroke-width="2"/><text x="139.33333333333334" y="70" text-anchor="middle" dominant-baseline="central" font-size="15" font-weight="600" fill="#2b3a55">A</text><line x1="146" y1="90.0" x2="146" y2="105.0" stroke="#2b3a55" stroke-width="2"/><line x1="256.0" y1="70" x2="306.0" y2="70" stroke="#6b7a99" stroke-width="1.6"/><rect x="216.0" y="50.0" width="40" height="40" rx="9" fill="#e9f0fb" stroke="#2b3a55" stroke-width="2"/><text x="236.0" y="70.0" text-anchor="middle" dominant-baseline="central" font-size="18" font-weight="600" fill="#2b3a55">C</text><polygon points="236,70 236,70 236,70 236,70" fill="#fbeede" stroke="#9a6a1e" stroke-width="2"/><text x="236" y="70" text-anchor="middle" dominant-baseline="central" font-size="16" font-weight="600" fill="#9a6a1e"></text><line x1="236" y1="90.0" x2="236" y2="105.0" stroke="#2b3a55" stroke-width="2"/><line x1="346.0" y1="70" x2="396.0" y2="70" stroke="#6b7a99" stroke-width="1.6"/><polygon points="346.0,50.0 306.0,70 346.0,90.0" fill="#e9f0fb" stroke="#2b3a55" stroke-width="2"/><text x="332.6666666666667" y="70" text-anchor="middle" dominant-baseline="central" font-size="15" font-weight="600" fill="#2b3a55">A</text><line x1="326" y1="90.0" x2="326" y2="105.0" stroke="#2b3a55" stroke-width="2"/><polygon points="436.0,50.0 396.0,70 436.0,90.0" fill="#e9f0fb" stroke="#2b3a55" stroke-width="2"/><text x="422.6666666666667" y="70" text-anchor="middle" dominant-baseline="central" font-size="15" font-weight="600" fill="#2b3a55">A</text><line x1="416" y1="90.0" x2="416" y2="105.0" stroke="#2b3a55" stroke-width="2"/><line x1="436.0" y1="70" x2="442" y2="70" stroke="#6b7a99" stroke-width="1.6"/><text x="236" y="117.0" text-anchor="middle" dominant-baseline="central" font-size="11" fill="#9a6a1e">carries S</text><text x="76.0" y="40.0" text-anchor="middle" dominant-baseline="central" font-size="11" fill="#2b3a55">A†A = 𝟙</text><text x="396.0" y="40.0" text-anchor="middle" dominant-baseline="central" font-size="11" fill="#2b3a55">AA† = 𝟙</text><text x="250.0" y="145" text-anchor="middle" dominant-baseline="central" font-size="12" fill="#475569">left isometries ▷   ·   orthogonality centre   ·   ◁ right isometries</text></svg>