<svg xmlns="http://www.w3.org/2000/svg" viewBox="0 0 600 206" width="600" height="206" style="max-width:100%;height:auto;font-family:Georgia,'Times New Roman',serif"><text x="300.0" y="20" text-anchor="middle" dominant-baseline="central" font-size="14" font-style="italic" fill="#1a2233">isometric MPS tensors collapse against their conjugate</text><text x="125.0" y="42" text-anchor="middle" dominant-baseline="central" font-size="12" fill="#2b3a55">left-orthogonal</text><polygon points="75.0,49.0 75.0,91.0 117.0,70" fill="#e9f0fb" stroke="#2b3a55" stroke-width="2"/><text x="90" y="70" text-anchor="middle" dominant-baseline="central" font-size="15" font-weight="600" fill="#2b3a55">A</text><polygon points="75.0,113.0 75.0,155.0 117.0,134" fill="#e9f0fb" stroke="#2b3a55" stroke-width="2"/><text x="90" y="134" text-anchor="middle" dominant-baseline="central" font-size="15" font-weight="600" fill="#2b3a55">A†</text><line x1="96" y1="80.5" x2="96" y2="123.5" stroke="#2b3a55" stroke-width="2"/><line x1="75.0" y1="49.0" x2="48" y2="49.0" stroke="#6b7a99" stroke-width="1.8"/><line x1="75.0" y1="155.0" x2="48" y2="155.0" stroke="#6b7a99" stroke-width="1.8"/><line x1="48" y1="49.0" x2="48" y2="155.0" stroke="#6b7a99" stroke-width="1.8"/><line x1="117.0" y1="70" x2="145.0" y2="70" stroke="#6b7a99" stroke-width="1.8"/><line x1="117.0" y1="134" x2="145.0" y2="134" stroke="#6b7a99" stroke-width="1.8"/><text x="210" y="102.0" text-anchor="middle" dominant-baseline="central" font-size="20" fill="#1a2233">=</text><line x1="230" y1="70" x2="244" y2="70" stroke="#6b7a99" stroke-width="1.8"/><line x1="244" y1="70" x2="244" y2="134" stroke="#6b7a99" stroke-width="1.8"/><line x1="230" y1="134" x2="244" y2="134" stroke="#6b7a99" stroke-width="1.8"/><text x="262" y="102.0" text-anchor="middle" dominant-baseline="central" font-size="18" fill="#2b3a55">𝟙</text><text x="125.0" y="176" text-anchor="middle" dominant-baseline="central" font-size="12" fill="#475569">A† A = 𝟙</text><text x="475.0" y="42" text-anchor="middle" dominant-baseline="central" font-size="12" fill="#2b3a55">right-orthogonal</text><polygon points="525.0,49.0 525.0,91.0 483.0,70" fill="#e9f0fb" stroke="#2b3a55" stroke-width="2"/><text x="510" y="70" text-anchor="middle" dominant-baseline="central" font-size="15" font-weight="600" fill="#2b3a55">A</text><polygon points="525.0,113.0 525.0,155.0 483.0,134" fill="#e9f0fb" stroke="#2b3a55" stroke-width="2"/><text x="510" y="134" text-anchor="middle" dominant-baseline="central" font-size="15" font-weight="600" fill="#2b3a55">A†</text><line x1="504" y1="80.5" x2="504" y2="123.5" stroke="#2b3a55" stroke-width="2"/><line x1="525.0" y1="49.0" x2="552" y2="49.0" stroke="#6b7a99" stroke-width="1.8"/><line x1="525.0" y1="155.0" x2="552" y2="155.0" stroke="#6b7a99" stroke-width="1.8"/><line x1="552" y1="49.0" x2="552" y2="155.0" stroke="#6b7a99" stroke-width="1.8"/><line x1="483.0" y1="70" x2="455.0" y2="70" stroke="#6b7a99" stroke-width="1.8"/><line x1="483.0" y1="134" x2="455.0" y2="134" stroke="#6b7a99" stroke-width="1.8"/><text x="390" y="102.0" text-anchor="middle" dominant-baseline="central" font-size="20" fill="#1a2233">=</text><line x1="370" y1="70" x2="356" y2="70" stroke="#6b7a99" stroke-width="1.8"/><line x1="356" y1="70" x2="356" y2="134" stroke="#6b7a99" stroke-width="1.8"/><line x1="370" y1="134" x2="356" y2="134" stroke="#6b7a99" stroke-width="1.8"/><text x="338" y="102.0" text-anchor="middle" dominant-baseline="central" font-size="18" fill="#2b3a55">𝟙</text><text x="475.0" y="176" text-anchor="middle" dominant-baseline="central" font-size="12" fill="#475569">A A† = 𝟙</text><text x="300.0" y="194" text-anchor="middle" dominant-baseline="central" font-size="12" fill="#475569">physical legs (vertical) meet; the contracted bond loops; the surviving bond is the identity</text></svg>