<svg xmlns="http://www.w3.org/2000/svg" viewBox="0 0 460 178" width="460" height="178" style="max-width:100%;height:auto;font-family:Georgia,'Times New Roman',serif"><text x="230.0" y="20" text-anchor="middle" dominant-baseline="central" font-size="14" font-style="italic" fill="#1a2233">⟨ψ|ψ⟩ — contract the chain with its conjugate</text><line x1="38" y1="60.0" x2="60" y2="60.0" stroke="#6b7a99" stroke-width="1.6"/><line x1="38" y1="120.0" x2="60" y2="120.0" stroke="#6b7a99" stroke-width="1.6"/><line x1="38" y1="60.0" x2="38" y2="120.0" stroke="#6b7a99" stroke-width="1.6"/><line x1="358" y1="60.0" x2="380" y2="60.0" stroke="#6b7a99" stroke-width="1.6"/><line x1="358" y1="120.0" x2="380" y2="120.0" stroke="#6b7a99" stroke-width="1.6"/><line x1="380" y1="60.0" x2="380" y2="120.0" stroke="#6b7a99" stroke-width="1.6"/><line x1="100" y1="60.0" x2="146" y2="60.0" stroke="#6b7a99" stroke-width="1.6"/><line x1="100" y1="120.0" x2="146" y2="120.0" stroke="#6b7a99" stroke-width="1.6"/><line x1="80.0" y1="76" x2="80.0" y2="104" stroke="#2b3a55" stroke-width="2"/><rect x="60" y="44" width="40" height="32" rx="9" fill="#e9f0fb" stroke="#2b3a55" stroke-width="2"/><text x="80.0" y="60.0" text-anchor="middle" dominant-baseline="central" font-size="18" font-weight="600" fill="#2b3a55">A</text><rect x="60" y="104" width="40" height="32" rx="9" fill="#e9f0fb" stroke="#2b3a55" stroke-width="2"/><text x="80.0" y="120.0" text-anchor="middle" dominant-baseline="central" font-size="18" font-weight="600" fill="#2b3a55">Ā</text><line x1="186" y1="60.0" x2="232" y2="60.0" stroke="#6b7a99" stroke-width="1.6"/><line x1="186" y1="120.0" x2="232" y2="120.0" stroke="#6b7a99" stroke-width="1.6"/><line x1="166.0" y1="76" x2="166.0" y2="104" stroke="#2b3a55" stroke-width="2"/><rect x="146" y="44" width="40" height="32" rx="9" fill="#e9f0fb" stroke="#2b3a55" stroke-width="2"/><text x="166.0" y="60.0" text-anchor="middle" dominant-baseline="central" font-size="18" font-weight="600" fill="#2b3a55">A</text><rect x="146" y="104" width="40" height="32" rx="9" fill="#e9f0fb" stroke="#2b3a55" stroke-width="2"/><text x="166.0" y="120.0" text-anchor="middle" dominant-baseline="central" font-size="18" font-weight="600" fill="#2b3a55">Ā</text><line x1="272" y1="60.0" x2="318" y2="60.0" stroke="#6b7a99" stroke-width="1.6"/><line x1="272" y1="120.0" x2="318" y2="120.0" stroke="#6b7a99" stroke-width="1.6"/><line x1="252.0" y1="76" x2="252.0" y2="104" stroke="#2b3a55" stroke-width="2"/><rect x="232" y="44" width="40" height="32" rx="9" fill="#e9f0fb" stroke="#2b3a55" stroke-width="2"/><text x="252.0" y="60.0" text-anchor="middle" dominant-baseline="central" font-size="18" font-weight="600" fill="#2b3a55">A</text><rect x="232" y="104" width="40" height="32" rx="9" fill="#e9f0fb" stroke="#2b3a55" stroke-width="2"/><text x="252.0" y="120.0" text-anchor="middle" dominant-baseline="central" font-size="18" font-weight="600" fill="#2b3a55">Ā</text><line x1="338.0" y1="76" x2="338.0" y2="104" stroke="#2b3a55" stroke-width="2"/><rect x="318" y="44" width="40" height="32" rx="9" fill="#e9f0fb" stroke="#2b3a55" stroke-width="2"/><text x="338.0" y="60.0" text-anchor="middle" dominant-baseline="central" font-size="18" font-weight="600" fill="#2b3a55">A</text><rect x="318" y="104" width="40" height="32" rx="9" fill="#e9f0fb" stroke="#2b3a55" stroke-width="2"/><text x="338.0" y="120.0" text-anchor="middle" dominant-baseline="central" font-size="18" font-weight="600" fill="#2b3a55">Ā</text><text x="230.0" y="164" text-anchor="middle" dominant-baseline="central" font-size="12" fill="#475569">shared physical legs contracted · zips left→right into a number</text></svg>