<svg xmlns="http://www.w3.org/2000/svg" viewBox="0 0 470 152" width="470" height="152" style="max-width:100%;height:auto;font-family:Georgia,'Times New Roman',serif"><text x="235.0" y="20" text-anchor="middle" dominant-baseline="central" font-size="14" font-style="italic" fill="#1a2233">an MPS — a chain of rank-3 tensors</text><line x1="14" y1="77.0" x2="40" y2="77.0" stroke="#6b7a99" stroke-width="1.6"/><text x="10" y="65.0" text-anchor="middle" dominant-baseline="central" font-size="11" fill="#6b7a99">ℂ¹</text><line x1="80" y1="77.0" x2="126" y2="77.0" stroke="#6b7a99" stroke-width="1.6"/><rect x="40" y="58" width="40" height="38" rx="9" fill="#e9f0fb" stroke="#2b3a55" stroke-width="2"/><text x="60.0" y="77.0" text-anchor="middle" dominant-baseline="central" font-size="18" font-weight="600" fill="#2b3a55">A¹</text><line x1="60.0" y1="96" x2="60.0" y2="112" stroke="#2b3a55" stroke-width="2"/><line x1="166" y1="77.0" x2="212" y2="77.0" stroke="#6b7a99" stroke-width="1.6"/><rect x="126" y="58" width="40" height="38" rx="9" fill="#e9f0fb" stroke="#2b3a55" stroke-width="2"/><text x="146.0" y="77.0" text-anchor="middle" dominant-baseline="central" font-size="18" font-weight="600" fill="#2b3a55">A²</text><line x1="146.0" y1="96" x2="146.0" y2="112" stroke="#2b3a55" stroke-width="2"/><line x1="252" y1="77.0" x2="298" y2="77.0" stroke="#6b7a99" stroke-width="1.6"/><rect x="212" y="58" width="40" height="38" rx="9" fill="#e9f0fb" stroke="#2b3a55" stroke-width="2"/><text x="232.0" y="77.0" text-anchor="middle" dominant-baseline="central" font-size="18" font-weight="600" fill="#2b3a55">A³</text><line x1="232.0" y1="96" x2="232.0" y2="112" stroke="#2b3a55" stroke-width="2"/><line x1="338" y1="77.0" x2="384" y2="77.0" stroke="#6b7a99" stroke-width="1.6"/><rect x="298" y="58" width="40" height="38" rx="9" fill="#e9f0fb" stroke="#2b3a55" stroke-width="2"/><text x="318.0" y="77.0" text-anchor="middle" dominant-baseline="central" font-size="18" font-weight="600" fill="#2b3a55">A⁴</text><line x1="318.0" y1="96" x2="318.0" y2="112" stroke="#2b3a55" stroke-width="2"/><rect x="384" y="58" width="40" height="38" rx="9" fill="#e9f0fb" stroke="#2b3a55" stroke-width="2"/><text x="404.0" y="77.0" text-anchor="middle" dominant-baseline="central" font-size="18" font-weight="600" fill="#2b3a55">A⁵</text><line x1="404.0" y1="96" x2="404.0" y2="112" stroke="#2b3a55" stroke-width="2"/><line x1="424" y1="77.0" x2="450" y2="77.0" stroke="#6b7a99" stroke-width="1.6"/><text x="454" y="65.0" text-anchor="middle" dominant-baseline="central" font-size="11" fill="#6b7a99">ℂ¹</text><text x="235.0" y="138" text-anchor="middle" dominant-baseline="central" font-size="12" fill="#475569">physical legs point down · bonds run left–right · open ends are ℂ¹</text></svg>