<svg xmlns="http://www.w3.org/2000/svg" viewBox="0 0 560 196" width="560" height="196" style="max-width:100%;height:auto;font-family:Georgia,'Times New Roman',serif"><text x="280.0" y="20" text-anchor="middle" dominant-baseline="central" font-size="14" font-style="italic" fill="#1a2233">one 2nd-order Strang step — a staircase of two-site gates at τ/2</text><text x="140.0" y="40" text-anchor="middle" dominant-baseline="central" font-size="12" fill="#475569">forward — centre walks ▶</text><line x1="40" y1="52" x2="40" y2="158" stroke="#d4dae4" stroke-width="1.2"/><text x="40" y="172" text-anchor="middle" dominant-baseline="central" font-size="11" fill="#475569">1</text><line x1="90" y1="52" x2="90" y2="158" stroke="#d4dae4" stroke-width="1.2"/><text x="90" y="172" text-anchor="middle" dominant-baseline="central" font-size="11" fill="#475569">2</text><line x1="140" y1="52" x2="140" y2="158" stroke="#d4dae4" stroke-width="1.2"/><text x="140" y="172" text-anchor="middle" dominant-baseline="central" font-size="11" fill="#475569">3</text><line x1="190" y1="52" x2="190" y2="158" stroke="#d4dae4" stroke-width="1.2"/><text x="190" y="172" text-anchor="middle" dominant-baseline="central" font-size="11" fill="#475569">4</text><line x1="240" y1="52" x2="240" y2="158" stroke="#d4dae4" stroke-width="1.2"/><text x="240" y="172" text-anchor="middle" dominant-baseline="central" font-size="11" fill="#475569">5</text><rect x="40.0" y="134" width="50" height="20" rx="9" fill="#eaf6ee" stroke="#2e7d4f" stroke-width="2"/><text x="65.0" y="144.0" text-anchor="middle" dominant-baseline="central" font-size="12" font-weight="600" fill="#2e7d4f">τ/2</text><circle cx="90" cy="144.0" r="4" fill="#9a6a1e" stroke="white" stroke-width="1"/><rect x="90.0" y="104" width="50" height="20" rx="9" fill="#eaf6ee" stroke="#2e7d4f" stroke-width="2"/><text x="115.0" y="114.0" text-anchor="middle" dominant-baseline="central" font-size="12" font-weight="600" fill="#2e7d4f">τ/2</text><circle cx="140" cy="114.0" r="4" fill="#9a6a1e" stroke="white" stroke-width="1"/><rect x="140.0" y="74" width="50" height="20" rx="9" fill="#eaf6ee" stroke="#2e7d4f" stroke-width="2"/><text x="165.0" y="84.0" text-anchor="middle" dominant-baseline="central" font-size="12" font-weight="600" fill="#2e7d4f">τ/2</text><circle cx="190" cy="84.0" r="4" fill="#9a6a1e" stroke="white" stroke-width="1"/><rect x="190.0" y="44" width="50" height="20" rx="9" fill="#eaf6ee" stroke="#2e7d4f" stroke-width="2"/><text x="215.0" y="54.0" text-anchor="middle" dominant-baseline="central" font-size="12" font-weight="600" fill="#2e7d4f">τ/2</text><circle cx="240" cy="54.0" r="4" fill="#9a6a1e" stroke="white" stroke-width="1"/><text x="410.0" y="40" text-anchor="middle" dominant-baseline="central" font-size="12" fill="#475569">backward — centre walks ◀</text><line x1="310" y1="52" x2="310" y2="158" stroke="#d4dae4" stroke-width="1.2"/><text x="310" y="172" text-anchor="middle" dominant-baseline="central" font-size="11" fill="#475569">1</text><line x1="360" y1="52" x2="360" y2="158" stroke="#d4dae4" stroke-width="1.2"/><text x="360" y="172" text-anchor="middle" dominant-baseline="central" font-size="11" fill="#475569">2</text><line x1="410" y1="52" x2="410" y2="158" stroke="#d4dae4" stroke-width="1.2"/><text x="410" y="172" text-anchor="middle" dominant-baseline="central" font-size="11" fill="#475569">3</text><line x1="460" y1="52" x2="460" y2="158" stroke="#d4dae4" stroke-width="1.2"/><text x="460" y="172" text-anchor="middle" dominant-baseline="central" font-size="11" fill="#475569">4</text><line x1="510" y1="52" x2="510" y2="158" stroke="#d4dae4" stroke-width="1.2"/><text x="510" y="172" text-anchor="middle" dominant-baseline="central" font-size="11" fill="#475569">5</text><rect x="460.0" y="134" width="50" height="20" rx="9" fill="#eaf6ee" stroke="#2e7d4f" stroke-width="2"/><text x="485.0" y="144.0" text-anchor="middle" dominant-baseline="central" font-size="12" font-weight="600" fill="#2e7d4f">τ/2</text><circle cx="460" cy="144.0" r="4" fill="#9a6a1e" stroke="white" stroke-width="1"/><rect x="410.0" y="104" width="50" height="20" rx="9" fill="#eaf6ee" stroke="#2e7d4f" stroke-width="2"/><text x="435.0" y="114.0" text-anchor="middle" dominant-baseline="central" font-size="12" font-weight="600" fill="#2e7d4f">τ/2</text><circle cx="410" cy="114.0" r="4" fill="#9a6a1e" stroke="white" stroke-width="1"/><rect x="360.0" y="74" width="50" height="20" rx="9" fill="#eaf6ee" stroke="#2e7d4f" stroke-width="2"/><text x="385.0" y="84.0" text-anchor="middle" dominant-baseline="central" font-size="12" font-weight="600" fill="#2e7d4f">τ/2</text><circle cx="360" cy="84.0" r="4" fill="#9a6a1e" stroke="white" stroke-width="1"/><rect x="310.0" y="44" width="50" height="20" rx="9" fill="#eaf6ee" stroke="#2e7d4f" stroke-width="2"/><text x="335.0" y="54.0" text-anchor="middle" dominant-baseline="central" font-size="12" font-weight="600" fill="#2e7d4f">τ/2</text><circle cx="310" cy="54.0" r="4" fill="#9a6a1e" stroke="white" stroke-width="1"/><text x="280.0" y="184" text-anchor="middle" dominant-baseline="central" font-size="12" fill="#475569">sweep the bond gates one way then back · the orthogonality centre rides inside each gate</text></svg>